<svg xmlns="http://www.w3.org/2000/svg" viewBox="0 0 32 32" fill="none">
  <!-- Background gradient -->
  <defs>
    <linearGradient id="bg-gradient" x1="0%" y1="0%" x2="100%" y2="100%">
      <stop offset="0%" style="stop-color:#ff6b35;stop-opacity:1" />
      <stop offset="100%" style="stop-color:#f7931e;stop-opacity:1" />
    </linearGradient>
    <linearGradient id="timer-gradient" x1="0%" y1="0%" x2="100%" y2="100%">
      <stop offset="0%" style="stop-color:#ffffff;stop-opacity:1" />
      <stop offset="100%" style="stop-color:#f8f9fa;stop-opacity:1" />
    </linearGradient>
  </defs>
  
  <!-- Rounded background -->
  <rect width="32" height="32" rx="8" fill="url(#bg-gradient)"/>
  
  <!-- Timer circle -->
  <circle cx="16" cy="16" r="10" fill="url(#timer-gradient)" stroke="#ff6b35" stroke-width="0.5"/>
  
  <!-- Timer progress indicator (25 minutes = ~75% of circle) -->
  <circle cx="16" cy="16" r="8.5" fill="none" stroke="#ff6b35" stroke-width="2" 
          stroke-dasharray="40 13.3" stroke-dashoffset="10" stroke-linecap="round"
          transform="rotate(-90 16 16)"/>
  
  <!-- Center dot -->
  <circle cx="16" cy="16" r="1.5" fill="#ff6b35"/>
  
  <!-- Timer hand pointing to 12 o'clock -->
  <line x1="16" y1="16" x2="16" y2="9" stroke="#ff6b35" stroke-width="1.5" stroke-linecap="round"/>
  
  <!-- Small productivity flame icon -->
  <path d="M20 8c-1 2-1.5 3-1 4.5s1.5 2 1.5 3.5c0 1.5-1 2.5-2.5 2.5s-2.5-1-2.5-2.5c0-1 0.5-1.5 1-2s1-1 1-2c0-0.5-0.5-1-1-1.5z" 
        fill="#ffffff" opacity="0.9"/>
</svg>