<svg xmlns="http://www.w3.org/2000/svg" viewBox="0 0 32 32" fill="none">
  <defs>
    <linearGradient id="bg" x1="0%" y1="0%" x2="100%" y2="100%">
      <stop offset="0%" style="stop-color:#ff6b35"/>
      <stop offset="100%" style="stop-color:#f7931e"/>
    </linearGradient>
    <filter id="shadow" x="-50%" y="-50%" width="200%" height="200%">
      <feDropShadow dx="0" dy="1" stdDeviation="1" flood-color="#000" flood-opacity="0.2"/>
    </filter>
  </defs>
  
  <!-- Background with rounded corners -->
  <rect width="32" height="32" rx="8" fill="url(#bg)" filter="url(#shadow)"/>
  
  <!-- Timer circle -->
  <circle cx="16" cy="16" r="9" fill="#fff" opacity="0.95"/>
  
  <!-- Progress ring -->
  <circle cx="16" cy="16" r="7.5" fill="none" stroke="#ff6b35" stroke-width="2.5" 
          stroke-dasharray="35 12" stroke-dashoffset="8" stroke-linecap="round"
          transform="rotate(-90 16 16)" opacity="0.9"/>
  
  <!-- Timer center -->
  <circle cx="16" cy="16" r="1.5" fill="#ff6b35"/>
  
  <!-- Timer hand -->
  <line x1="16" y1="16" x2="16" y2="10" stroke="#ff6b35" stroke-width="1.5" stroke-linecap="round"/>
  
  <!-- Productivity symbol -->
  <path d="M23 6c-1.2 2.5-1.8 3.5-1.2 5.5s1.8 2.5 1.8 4.2c0 1.8-1.2 3-3 3s-3-1.2-3-3c0-1.2 0.6-1.8 1.2-2.4s1.2-1.2 1.2-2.4c0-0.6-0.6-1.2-1.2-1.8z" 
        fill="#fff" opacity="0.9"/>
</svg>